<?xml version="1.0" encoding="utf-8" ?>
<svg xmlns:ns0="http://www.w3.org/2000/svg" baseProfile="tiny" height="100%" version="1.2" viewBox="0 0 1280 720" width="100%" xmlns="http://www.w3.org/2000/svg" xmlns:ev="http://www.w3.org/2001/xml-events" xmlns:xlink="http://www.w3.org/1999/xlink"><defs /><g transform="translate(0.0,0.0)"><ns0:svg width="420.0" height="69.0" viewBox="0 0 640 260" role="img" aria-labelledby="title desc" preserveAspectRatio="none">
  <ns0:title id="title">Power BI Text Box — Mock</ns0:title>
  <ns0:desc id="desc">Title, subtitle, body text, bullets, and a link styled like a Power BI text box.</ns0:desc>

  
  <ns0:rect x="16" y="16" width="608" height="228" rx="10" fill="#ffffff" stroke="#e6e6e6" />

  
  <ns0:text x="32" y="58" font-family="Segoe UI, Arial, sans-serif" font-size="24" font-weight="600" fill="#111">
    Quarterly Highlights
  </ns0:text>

  
  <ns0:text x="32" y="82" font-family="Segoe UI, Arial, sans-serif" font-size="13" fill="#666" letter-spacing="0.2">
    FY25 Q3 • Draft
  </ns0:text>

  
  <ns0:line x1="32" y1="96" x2="608" y2="96" stroke="#efefef" />

  
  <ns0:text x="32" y="120" font-family="Segoe UI, Arial, sans-serif" font-size="14" fill="#222">
    <ns0:tspan x="32" dy="0">Revenue up 8% QoQ; churn down 1.2 pp; ASP +$3.</ns0:tspan>
    <ns0:tspan x="32" dy="20">Marketing CAC stable; inventory turns improved.</ns0:tspan>
  </ns0:text>

  
  <ns0:g font-family="Segoe UI, Arial, sans-serif" font-size="14" fill="#222">
    <ns0:text x="32" y="164">• <ns0:tspan dx="6">Top regions: NA, EMEA</ns0:tspan></ns0:text>
    <ns0:text x="32" y="186">• <ns0:tspan dx="6">Risks: FX volatility; supply constraints</ns0:tspan></ns0:text>
  </ns0:g>

  
  <ns0:text x="32" y="212" font-family="Segoe UI, Arial, sans-serif" font-size="14" fill="#1368CE" text-decoration="underline">
    See detailed report
  </ns0:text>

  
  <ns0:path d="M612,232 l0,-10 l-10,0" fill="none" stroke="#d9d9d9" stroke-width="2" />
</ns0:svg></g><g transform="translate(470.5498981670061,189.0020366598778)"><ns0:svg width="114.70468431771894" height="91.24236252545825" viewBox="0 0 380 200" role="img" aria-labelledby="title desc" preserveAspectRatio="none">
  <ns0:title id="title">Power BI Card — Total Sales</ns0:title>
  <ns0:desc id="desc">Card with title and a large main value. Trend removed.</ns0:desc>

  
  <ns0:rect x="10" y="10" width="360" height="180" rx="12" fill="#ffffff" stroke="#e6e6e6" />

  
  <ns0:text x="24" y="42" font-family="Segoe UI, Arial, sans-serif" font-size="14" fill="#444" letter-spacing="0.2">
    Total Sales
  </ns0:text>

  
  <ns0:g transform="translate(24,60)" font-family="Segoe UI, Arial, sans-serif">
    <ns0:rect x="0" y="-14" width="64" height="22" rx="11" fill="#E8F5EE" />
    <ns0:path d="M14,-4 l4,0 0,6 6,0 0,-6 4,0 -7,-7z" fill="#2DBD7E" />
    <ns0:text x="30" y="2" font-size="12" fill="#2DBD7E" font-weight="600">+8%</ns0:text>
    <ns0:text x="0" y="20" font-size="12" fill="#666">vs previous period</ns0:text>
  </ns0:g>

  
  <ns0:text x="190" y="140" font-family="Segoe UI, Arial, sans-serif" font-size="88" font-weight="700" fill="#111" text-anchor="middle" dominant-baseline="middle">
    $1.23M
  </ns0:text>

  
  <ns0:text x="24" y="168" font-family="Segoe UI, Arial, sans-serif" font-size="12" fill="#888">
    FYTD • Updated today
  </ns0:text>
</ns0:svg></g><g transform="translate(32.586558044806516,351.9348268839104)"><ns0:svg width="564.3991853360488" height="329.77596741344195" viewBox="0 0 720 420" role="img" aria-labelledby="title desc" preserveAspectRatio="none">
  <ns0:title id="title">Mock Map — Bubble Overlay</ns0:title>
  <ns0:desc id="desc">Schematic world map with graticule and bubble markers; legends included.</ns0:desc>

  
  <ns0:rect x="10" y="10" width="700" height="400" rx="12" fill="#ffffff" stroke="#e6e6e6" />

  
  <ns0:text x="30" y="44" font-family="Segoe UI, Arial, sans-serif" font-size="16" font-weight="600" fill="#111">
    Sales by Location (Mock)
  </ns0:text>
  <ns0:text x="30" y="64" font-family="Segoe UI, Arial, sans-serif" font-size="12" fill="#666">
    Bubble size ~ value • Colors ~ category
  </ns0:text>

  
  <ns0:g transform="translate(20,60)">
    
    <ns0:rect x="0" y="0" width="480" height="320" fill="#F5F8FF" stroke="#dfe7f3" />

    
    <ns0:g stroke="#e8eef7" stroke-width="1">
      <ns0:line x1="0" y1="0" x2="0" y2="320" />
      <ns0:line x1="80" y1="0" x2="80" y2="320" />
      <ns0:line x1="160" y1="0" x2="160" y2="320" />
      <ns0:line x1="240" y1="0" x2="240" y2="320" />
      <ns0:line x1="320" y1="0" x2="320" y2="320" />
      <ns0:line x1="400" y1="0" x2="400" y2="320" />
      <ns0:line x1="480" y1="0" x2="480" y2="320" />
      <ns0:line x1="0" y1="0" x2="480" y2="0" />
      <ns0:line x1="0" y1="80" x2="480" y2="80" />
      <ns0:line x1="0" y1="160" x2="480" y2="160" />
      <ns0:line x1="0" y1="240" x2="480" y2="240" />
      <ns0:line x1="0" y1="320" x2="480" y2="320" />
    </ns0:g>

    
    <ns0:g fill="#DFE9F5" stroke="#CBD9EA" stroke-width="1">
      
      <ns0:path d="M78,160                C70,130 92,110 130,98                C160,88 190,88 210,100                C230,112 230,128 212,140                C194,152 178,160 160,172                C142,184 120,196 104,194                C88,192 82,180 78,160 Z" />
      
      <ns0:path d="M168,64 C182,56 204,58 212,70 C218,80 208,94 190,96 C176,98 162,86 168,64 Z" />
      
      <ns0:path d="M170,208                C188,212 196,230 192,246                C186,270 178,292 166,300                C156,306 148,298 152,286                C156,272 154,260 144,246                C134,232 138,214 154,208                C160,206 164,206 170,208 Z" />
      
      <ns0:path d="M240,120                C262,110 292,106 318,112                C342,118 358,128 360,140                C362,154 350,162 330,166                C306,170 284,170 266,162                C246,152 236,140 240,120 Z" />
      
      <ns0:path d="M284,168                C298,170 314,178 322,194                C334,218 334,242 322,262                C312,278 288,282 276,266                C262,246 254,226 258,204                C262,182 270,170 284,168 Z" />
      
      <ns0:path d="M330,154                C352,152 376,160 388,176                C396,186 392,198 378,202                C360,208 340,204 330,192                C322,182 322,160 330,154 Z" />
      
      <ns0:path d="M320,120                C348,112 382,114 410,124                C436,134 452,150 452,168                C452,186 438,198 414,202                C388,206 362,198 344,184                C326,170 314,148 320,120 Z" />
      
      <ns0:path d="M404,250                C418,246 440,250 456,260                C468,268 464,282 446,284                C428,286 410,280 402,270                C398,264 398,254 404,250 Z" />
      
      <ns0:path d="M40,308 C120,314 220,316 320,314 C380,312 440,306 476,304                C470,312 458,320 430,322 C340,326 240,326 160,324 C90,322 60,318 40,308 Z" opacity="0.4" />
    </ns0:g>

    
    <ns0:g transform="translate(440,10)" stroke="#cfd8e3">
      <ns0:rect x="0" y="0" width="30" height="60" rx="6" fill="#ffffff" stroke="#e1e8f0" />
      <ns0:line x1="8" y1="20" x2="22" y2="20" stroke="#8aa8c2" stroke-width="2" />
      <ns0:line x1="15" y1="13" x2="15" y2="27" stroke="#8aa8c2" stroke-width="2" />
      <ns0:line x1="8" y1="42" x2="22" y2="42" stroke="#8aa8c2" stroke-width="2" />
    </ns0:g>

    
    <ns0:circle cx="127" cy="149" r="12" fill="#4C9AFF" stroke="#ffffff" stroke-width="2" />
    <ns0:text x="145" y="145" font-family="Segoe UI, Arial, sans-serif" font-size="12" fill="#111">A — 200</ns0:text>

    <ns0:circle cx="273" cy="131" r="10" fill="#2DBD7E" stroke="#ffffff" stroke-width="2" />
    <ns0:text x="291" y="127" font-family="Segoe UI, Arial, sans-serif" font-size="12" fill="#111">B — 160</ns0:text>

    <ns0:circle cx="420" cy="158" r="8" fill="#FFB86B" stroke="#ffffff" stroke-width="2" />
    <ns0:text x="438" y="154" font-family="Segoe UI, Arial, sans-serif" font-size="12" fill="#111">C — 120</ns0:text>

    <ns0:circle cx="180" cy="247" r="6" fill="#9B6BFF" stroke="#ffffff" stroke-width="2" />
    <ns0:text x="198" y="243" font-family="Segoe UI, Arial, sans-serif" font-size="12" fill="#111">D — 90</ns0:text>

    <ns0:circle cx="460" cy="264" r="5" fill="#8E9BAA" stroke="#ffffff" stroke-width="2" />
    <ns0:text x="478" y="260" font-family="Segoe UI, Arial, sans-serif" font-size="12" fill="#111">E — 70</ns0:text>
  </ns0:g>

  
  <ns0:g transform="translate(520,84)" font-family="Segoe UI, Arial, sans-serif" font-size="12" fill="#222">
    <ns0:text x="0" y="0" font-weight="600">Legend</ns0:text>
    <ns0:rect x="0" y="12" width="12" height="12" fill="#4C9AFF" /><ns0:text x="18" y="22">A</ns0:text>
    <ns0:rect x="0" y="30" width="12" height="12" fill="#2DBD7E" /><ns0:text x="18" y="40">B</ns0:text>
    <ns0:rect x="0" y="48" width="12" height="12" fill="#FFB86B" /><ns0:text x="18" y="58">C</ns0:text>
    <ns0:rect x="0" y="66" width="12" height="12" fill="#9B6BFF" /><ns0:text x="18" y="76">D</ns0:text>
    <ns0:rect x="0" y="84" width="12" height="12" fill="#8E9BAA" /><ns0:text x="18" y="94">E</ns0:text>
  </ns0:g>

  <ns0:g transform="translate(520,206)" font-family="Segoe UI, Arial, sans-serif" font-size="12" fill="#222">
    <ns0:text x="0" y="0" font-weight="600">Value</ns0:text>
    <ns0:g transform="translate(0,24)">
      <ns0:circle cx="10" cy="20" r="6" fill="none" stroke="#9aa7b4" /><ns0:text x="28" y="24">≈ 80</ns0:text>
      <ns0:circle cx="10" cy="56" r="10" fill="none" stroke="#9aa7b4" /><ns0:text x="28" y="60">≈ 150</ns0:text>
      <ns0:circle cx="10" cy="100" r="12" fill="none" stroke="#9aa7b4" /><ns0:text x="28" y="104">≈ 200</ns0:text>
    </ns0:g>
  </ns0:g>

  
  <ns0:text x="30" y="392" font-family="Segoe UI, Arial, sans-serif" font-size="12" fill="#888">
    Mock visualization • Simplified land shapes (not to scale)
  </ns0:text>
</ns0:svg></g><g transform="translate(1131.7894736842106,687.1578947368421)"><ns0:svg width="137.1866028708134" height="30.62200956937799" viewBox="0 0 640 260" role="img" aria-labelledby="title desc" preserveAspectRatio="none">
  <ns0:title id="title">Power BI Text Box — Mock</ns0:title>
  <ns0:desc id="desc">Title, subtitle, body text, bullets, and a link styled like a Power BI text box.</ns0:desc>

  
  <ns0:rect x="16" y="16" width="608" height="228" rx="10" fill="#ffffff" stroke="#e6e6e6" />

  
  <ns0:text x="32" y="58" font-family="Segoe UI, Arial, sans-serif" font-size="24" font-weight="600" fill="#111">
    Quarterly Highlights
  </ns0:text>

  
  <ns0:text x="32" y="82" font-family="Segoe UI, Arial, sans-serif" font-size="13" fill="#666" letter-spacing="0.2">
    FY25 Q3 • Draft
  </ns0:text>

  
  <ns0:line x1="32" y1="96" x2="608" y2="96" stroke="#efefef" />

  
  <ns0:text x="32" y="120" font-family="Segoe UI, Arial, sans-serif" font-size="14" fill="#222">
    <ns0:tspan x="32" dy="0">Revenue up 8% QoQ; churn down 1.2 pp; ASP +$3.</ns0:tspan>
    <ns0:tspan x="32" dy="20">Marketing CAC stable; inventory turns improved.</ns0:tspan>
  </ns0:text>

  
  <ns0:g font-family="Segoe UI, Arial, sans-serif" font-size="14" fill="#222">
    <ns0:text x="32" y="164">• <ns0:tspan dx="6">Top regions: NA, EMEA</ns0:tspan></ns0:text>
    <ns0:text x="32" y="186">• <ns0:tspan dx="6">Risks: FX volatility; supply constraints</ns0:tspan></ns0:text>
  </ns0:g>

  
  <ns0:text x="32" y="212" font-family="Segoe UI, Arial, sans-serif" font-size="14" fill="#1368CE" text-decoration="underline">
    See detailed report
  </ns0:text>

  
  <ns0:path d="M612,232 l0,-10 l-10,0" fill="none" stroke="#d9d9d9" stroke-width="2" />
</ns0:svg></g><g transform="translate(643.9103869653768,16.945010183299388)"><ns0:svg viewBox="0 0 600 320" width="612.6272912423625" height="263.29938900203666" role="img" aria-labelledby="titleDesc" preserveAspectRatio="none">
  <ns0:title id="titleDesc">Bar chart with 1 unit = 1 pixel</ns0:title>

  
  <ns0:rect width="100%" height="100%" fill="#ffffff" />

  
  <ns0:line x1="60" y1="260" x2="560" y2="260" stroke="#333" stroke-width="2" />
  <ns0:line x1="60" y1="40" x2="60" y2="260" stroke="#333" stroke-width="2" />

  
  <ns0:g font-family="Arial, Helvetica, sans-serif" font-size="12" fill="#555">
    <ns0:line x1="60" y1="210" x2="560" y2="210" stroke="#e6e6e6" stroke-width="1" />
    <ns0:text x="30" y="214" text-anchor="end">50</ns0:text>

    <ns0:line x1="60" y1="160" x2="560" y2="160" stroke="#e6e6e6" stroke-width="1" />
    <ns0:text x="30" y="164" text-anchor="end">100</ns0:text>

    <ns0:line x1="60" y1="110" x2="560" y2="110" stroke="#e6e6e6" stroke-width="1" />
    <ns0:text x="30" y="114" text-anchor="end">150</ns0:text>

    <ns0:line x1="60" y1="60" x2="560" y2="60" stroke="#e6e6e6" stroke-width="1" />
    <ns0:text x="30" y="64" text-anchor="end">200</ns0:text>
  </ns0:g>

  
  
  <ns0:rect x="110" y="130" width="80" height="130" rx="4" fill="#4C9AFF" />
  <ns0:text x="150" y="122" text-anchor="middle" font-family="Arial" font-size="12" fill="#222">130</ns0:text>
  <ns0:text x="150" y="284" text-anchor="middle" font-family="Arial" font-size="13" fill="#222">Category A</ns0:text>

  
  <ns0:rect x="260" y="60" width="80" height="200" rx="4" fill="#2DBD7E" />
  <ns0:text x="300" y="52" text-anchor="middle" font-family="Arial" font-size="12" fill="#222">200</ns0:text>
  <ns0:text x="300" y="284" text-anchor="middle" font-family="Arial" font-size="13" fill="#222">Category B</ns0:text>

  
  <ns0:rect x="410" y="200" width="80" height="60" rx="4" fill="#FFB86B" />
  <ns0:text x="450" y="192" text-anchor="middle" font-family="Arial" font-size="12" fill="#222">60</ns0:text>
  <ns0:text x="450" y="284" text-anchor="middle" font-family="Arial" font-size="13" fill="#222">Category C</ns0:text>

  
  <ns0:text x="60" y="16" font-family="Arial" font-size="14" fill="#111">Sample Bar Chart (1px per unit)</ns0:text>

  
  <ns0:g font-family="Arial, Helvetica, sans-serif" font-size="12" fill="#222">
    <ns0:rect x="420" y="10" width="12" height="12" fill="#4C9AFF" />
    <ns0:text x="438" y="20">Category A</ns0:text>

    <ns0:rect x="420" y="28" width="12" height="12" fill="#2DBD7E" />
    <ns0:text x="438" y="38">Category B</ns0:text>

    <ns0:rect x="420" y="46" width="12" height="12" fill="#FFB86B" />
    <ns0:text x="438" y="56">Category C</ns0:text>
  </ns0:g>
</ns0:svg></g><g transform="translate(108.18737270875764,78.20773930753563)"><ns0:svg width="248.96130346232178" height="205.9470468431772" viewBox="0 0 520 320" role="img" aria-labelledby="title desc" preserveAspectRatio="none">
  <ns0:title id="title">Pie Chart — Category A/B/C</ns0:title>
  <ns0:desc id="desc">Values: A=130, B=200, C=60. Slice angles proportional to values. Labels at slice mid-angles.</ns0:desc>

  
  <ns0:rect width="100%" height="100%" fill="#ffffff" />

  
  <ns0:text x="50%" y="28" text-anchor="middle" font-family="Arial, Helvetica, sans-serif" font-size="16" fill="#111">
    Pie Chart (A=130, B=200, C=60)
  </ns0:text>

  
  
  <ns0:path d="M150,150 L150,30 A120,120 0 0,1 253.923,210 Z" fill="#4C9AFF" />

  
  <ns0:path d="M150,150 L253.923,210 A120,120 0 1,1 51.242,81.832 Z" fill="#2DBD7E" />

  
  <ns0:path d="M150,150 L51.242,81.832 A120,120 0 0,1 150,30 Z" fill="#FFB86B" />

  
  <ns0:g font-family="Arial, Helvetica, sans-serif" font-size="13" fill="#111">
    
    <ns0:text x="227.942" y="105" text-anchor="middle">Category A — 130 (33%)</ns0:text>
    
    <ns0:text x="101.898" y="226.067" text-anchor="middle">Category B — 200 (51%)</ns0:text>
    
    <ns0:text x="108.175" y="70.309" text-anchor="middle">Category C — 60 (15%)</ns0:text>
  </ns0:g>

  
  <ns0:g font-family="Arial, Helvetica, sans-serif" font-size="12" fill="#222">
    <ns0:rect x="340" y="56" width="14" height="14" fill="#4C9AFF" />
    <ns0:text x="360" y="67">Category A</ns0:text>

    <ns0:rect x="340" y="78" width="14" height="14" fill="#2DBD7E" />
    <ns0:text x="360" y="89">Category B</ns0:text>

    <ns0:rect x="340" y="100" width="14" height="14" fill="#FFB86B" />
    <ns0:text x="360" y="111">Category C</ns0:text>
  </ns0:g>
</ns0:svg></g><g transform="translate(607.4134419551934,331.0794297352342)"><ns0:svg width="654.3380855397148" height="379.3075356415479" viewBox="0 0 720 420" role="img" aria-labelledby="title desc" preserveAspectRatio="none">
  <ns0:title id="title">Mock Scatter Chart</ns0:title>
  <ns0:desc id="desc">Scatter plot with three categories (A, B, C), gridlines, axes, and legend. Axes run 0–100.</ns0:desc>

  
  <ns0:rect x="10" y="10" width="700" height="400" rx="12" fill="#ffffff" stroke="#e6e6e6" />

  
  <ns0:text x="30" y="44" font-family="Segoe UI, Arial, sans-serif" font-size="16" font-weight="600" fill="#111">
    Scatter (Mock)
  </ns0:text>
  <ns0:text x="30" y="64" font-family="Segoe UI, Arial, sans-serif" font-size="12" fill="#666">
    X: 0–100 • Y: 0–100
  </ns0:text>

  
  <ns0:g transform="translate(20,60)">
    
    <ns0:rect x="0" y="0" width="480" height="320" fill="#FAFBFD" stroke="#eef2f6" />

    
    <ns0:defs>
      <ns0:clipPath id="plotClip">
        <ns0:rect x="0" y="0" width="480" height="320" />
      </ns0:clipPath>
    </ns0:defs>

    
    <ns0:g stroke="#eceff4" stroke-width="1">
      
      <ns0:line x1="96" y1="0" x2="96" y2="320" />
      <ns0:line x1="192" y1="0" x2="192" y2="320" />
      <ns0:line x1="288" y1="0" x2="288" y2="320" />
      <ns0:line x1="384" y1="0" x2="384" y2="320" />
      <ns0:line x1="480" y1="0" x2="480" y2="320" />
      
      <ns0:line x1="0" y1="256" x2="480" y2="256" />
      <ns0:line x1="0" y1="192" x2="480" y2="192" />
      <ns0:line x1="0" y1="128" x2="480" y2="128" />
      <ns0:line x1="0" y1="64" x2="480" y2="64" />
      <ns0:line x1="0" y1="0" x2="480" y2="0" />
    </ns0:g>

    
    <ns0:g stroke="#3a3f45" stroke-width="2">
      <ns0:line x1="0" y1="320" x2="480" y2="320" /> 
      <ns0:line x1="0" y1="0" x2="0" y2="320" /> 
    </ns0:g>

    
    <ns0:g font-family="Segoe UI, Arial, sans-serif" font-size="12" fill="#555">
      
      <ns0:text x="0" y="340" text-anchor="middle">0</ns0:text>
      <ns0:text x="96" y="340" text-anchor="middle">20</ns0:text>
      <ns0:text x="192" y="340" text-anchor="middle">40</ns0:text>
      <ns0:text x="288" y="340" text-anchor="middle">60</ns0:text>
      <ns0:text x="384" y="340" text-anchor="middle">80</ns0:text>
      <ns0:text x="480" y="340" text-anchor="middle">100</ns0:text>
      
      <ns0:text x="-8" y="320" text-anchor="end" dy="4">0</ns0:text>
      <ns0:text x="-8" y="256" text-anchor="end" dy="4">20</ns0:text>
      <ns0:text x="-8" y="192" text-anchor="end" dy="4">40</ns0:text>
      <ns0:text x="-8" y="128" text-anchor="end" dy="4">60</ns0:text>
      <ns0:text x="-8" y="64" text-anchor="end" dy="4">80</ns0:text>
      <ns0:text x="-8" y="0" text-anchor="end" dy="4">100</ns0:text>
    </ns0:g>

    
    <ns0:text x="240" y="368" text-anchor="middle" font-family="Segoe UI, Arial, sans-serif" font-size="12" fill="#666">X</ns0:text>
    <ns0:g transform="translate(-36,160) rotate(-90)">
      <ns0:text text-anchor="middle" font-family="Segoe UI, Arial, sans-serif" font-size="12" fill="#666">Y</ns0:text>
    </ns0:g>

    
    <ns0:g clip-path="url(#plotClip)" stroke="#ffffff" stroke-width="2">
      
      <ns0:circle cx="72.0" cy="80.0" r="6" fill="#4C9AFF"><ns0:title>A (15, 75)</ns0:title></ns0:circle>
      <ns0:circle cx="144.0" cy="128.0" r="6" fill="#4C9AFF"><ns0:title>A (30, 60)</ns0:title></ns0:circle>
      <ns0:circle cx="216.0" cy="112.0" r="6" fill="#4C9AFF"><ns0:title>A (45, 65)</ns0:title></ns0:circle>
      <ns0:circle cx="288.0" cy="144.0" r="6" fill="#4C9AFF"><ns0:title>A (60, 55)</ns0:title></ns0:circle>

      
      <ns0:circle cx="96.0" cy="224.0" r="6" fill="#2DBD7E"><ns0:title>B (20, 30)</ns0:title></ns0:circle>
      <ns0:circle cx="192.0" cy="208.0" r="6" fill="#2DBD7E"><ns0:title>B (40, 35)</ns0:title></ns0:circle>
      <ns0:circle cx="264.0" cy="240.0" r="6" fill="#2DBD7E"><ns0:title>B (55, 25)</ns0:title></ns0:circle>
      <ns0:circle cx="336.0" cy="192.0" r="6" fill="#2DBD7E"><ns0:title>B (70, 40)</ns0:title></ns0:circle>

      
      <ns0:circle cx="312.0" cy="48.0" r="6" fill="#FFB86B"><ns0:title>C (65, 85)</ns0:title></ns0:circle>
      <ns0:circle cx="384.0" cy="96.0" r="6" fill="#FFB86B"><ns0:title>C (80, 70)</ns0:title></ns0:circle>
      <ns0:circle cx="432.0" cy="32.0" r="6" fill="#FFB86B"><ns0:title>C (90, 90)</ns0:title></ns0:circle>
    </ns0:g>
  </ns0:g>

  
  <ns0:g transform="translate(520,84)" font-family="Segoe UI, Arial, sans-serif" font-size="12" fill="#222">
    <ns0:text x="0" y="0" font-weight="600">Legend</ns0:text>
    <ns0:circle cx="6" cy="18" r="6" fill="#4C9AFF" stroke="#ffffff" stroke-width="2" />
    <ns0:text x="18" y="22">Category A</ns0:text>
    <ns0:circle cx="6" cy="38" r="6" fill="#2DBD7E" stroke="#ffffff" stroke-width="2" />
    <ns0:text x="18" y="42">Category B</ns0:text>
    <ns0:circle cx="6" cy="58" r="6" fill="#FFB86B" stroke="#ffffff" stroke-width="2" />
    <ns0:text x="18" y="62">Category C</ns0:text>
  </ns0:g>

  
  <ns0:text x="30" y="392" font-family="Segoe UI, Arial, sans-serif" font-size="12" fill="#888">
    Mock visualization • Points placed using 0–100 scales
  </ns0:text>
</ns0:svg></g><g transform="translate(479.67413441955193,65.17311608961303)"><ns0:svg width="114.70468431771894" height="91.24236252545825" viewBox="0 0 380 200" role="img" aria-labelledby="title desc" preserveAspectRatio="none">
  <ns0:title id="title">Power BI Card — Total Sales</ns0:title>
  <ns0:desc id="desc">Card with title and a large main value. Trend removed.</ns0:desc>

  
  <ns0:rect x="10" y="10" width="360" height="180" rx="12" fill="#ffffff" stroke="#e6e6e6" />

  
  <ns0:text x="24" y="42" font-family="Segoe UI, Arial, sans-serif" font-size="14" fill="#444" letter-spacing="0.2">
    Total Sales
  </ns0:text>

  
  <ns0:g transform="translate(24,60)" font-family="Segoe UI, Arial, sans-serif">
    <ns0:rect x="0" y="-14" width="64" height="22" rx="11" fill="#E8F5EE" />
    <ns0:path d="M14,-4 l4,0 0,6 6,0 0,-6 4,0 -7,-7z" fill="#2DBD7E" />
    <ns0:text x="30" y="2" font-size="12" fill="#2DBD7E" font-weight="600">+8%</ns0:text>
    <ns0:text x="0" y="20" font-size="12" fill="#666">vs previous period</ns0:text>
  </ns0:g>

  
  <ns0:text x="190" y="140" font-family="Segoe UI, Arial, sans-serif" font-size="88" font-weight="700" fill="#111" text-anchor="middle" dominant-baseline="middle">
    $1.23M
  </ns0:text>

  
  <ns0:text x="24" y="168" font-family="Segoe UI, Arial, sans-serif" font-size="12" fill="#888">
    FYTD • Updated today
  </ns0:text>
</ns0:svg></g></svg>